<svg xmlns="http://www.w3.org/2000/svg" viewBox="0 0 1024 1024">
  <defs>
    <linearGradient id="bg" x1="160" y1="120" x2="880" y2="920" gradientUnits="userSpaceOnUse">
      <stop offset="0" stop-color="#1e293b"/>
      <stop offset="0.45" stop-color="#0f172a"/>
      <stop offset="1" stop-color="#020617"/>
    </linearGradient>
    <linearGradient id="panel" x1="256" y1="248" x2="768" y2="744" gradientUnits="userSpaceOnUse">
      <stop offset="0" stop-color="#0f766e"/>
      <stop offset="0.5" stop-color="#0f172a"/>
      <stop offset="1" stop-color="#08111f"/>
    </linearGradient>
    <linearGradient id="accent" x1="288" y1="320" x2="736" y2="704" gradientUnits="userSpaceOnUse">
      <stop offset="0" stop-color="#5eead4"/>
      <stop offset="1" stop-color="#38bdf8"/>
    </linearGradient>
    <linearGradient id="stand" x1="384" y1="712" x2="640" y2="808" gradientUnits="userSpaceOnUse">
      <stop offset="0" stop-color="#a5f3fc"/>
      <stop offset="1" stop-color="#0ea5e9"/>
    </linearGradient>
    <filter id="shadow" x="-20%" y="-20%" width="140%" height="140%">
      <feDropShadow dx="0" dy="22" stdDeviation="28" flood-color="#020617" flood-opacity="0.7"/>
    </filter>
    <filter id="glow" x="-50%" y="-50%" width="200%" height="200%">
      <feGaussianBlur stdDeviation="20" result="b"/>
      <feColorMatrix in="b" type="matrix" values="1 0 0 0 0
                                                  0 1 0 0 0
                                                  0 0 1 0 0
                                                  0 0 0 0.7 0"/>
    </filter>
  </defs>

  <rect width="1024" height="1024" rx="220" fill="url(#bg)"/>
  <circle cx="522" cy="466" r="290" fill="#22d3ee" opacity="0.1" filter="url(#glow)"/>

  <g filter="url(#shadow)">
    <rect x="172" y="196" width="680" height="454" rx="88" fill="url(#panel)" stroke="#7dd3fc" stroke-opacity="0.26" stroke-width="18"/>
    <rect x="216" y="242" width="592" height="360" rx="62" fill="#050816" fill-opacity="0.92" stroke="#e2e8f0" stroke-opacity="0.08" stroke-width="8"/>
    <rect x="250" y="276" width="524" height="292" rx="42" fill="none" stroke="#67e8f9" stroke-opacity="0.14" stroke-width="6"/>

    <path d="M286 504
             L334 484
             L392 510
             L448 418
             L508 442
             L566 354
             L622 390
             L684 320
             L742 344"
          fill="none" stroke="url(#accent)" stroke-width="24" stroke-linecap="round" stroke-linejoin="round"/>

    <circle cx="286" cy="504" r="14" fill="#5eead4"/>
    <circle cx="448" cy="418" r="14" fill="#38bdf8"/>
    <circle cx="566" cy="354" r="14" fill="#5eead4"/>
    <circle cx="742" cy="344" r="14" fill="#38bdf8"/>

    <rect x="360" y="700" width="304" height="56" rx="28" fill="url(#stand)"/>
    <rect x="418" y="756" width="188" height="44" rx="22" fill="#bae6fd" opacity="0.96"/>
    <rect x="366" y="802" width="292" height="34" rx="17" fill="#0f172a" opacity="0.82"/>
  </g>

  <rect x="236" y="258" width="552" height="78" rx="39" fill="#ffffff" opacity="0.05"/>
  <rect x="286" y="300" width="160" height="16" rx="8" fill="#e0f2fe" opacity="0.6"/>
  <rect x="286" y="330" width="92" height="12" rx="6" fill="#94a3b8" opacity="0.55"/>
</svg>
